<svg width="72" height="76" viewBox="0 0 72 76" fill="none" xmlns="http://www.w3.org/2000/svg">
<g clip-path="url(#clip0_774_6220)">
<path d="M24.0493 28.0113C24.9518 29.5608 26.6479 30.3663 28.4153 30.4184C30.3731 30.4768 32.1462 29.6799 33.5883 28.3817C35.312 26.8326 36.4543 24.7339 37.2636 22.5894C37.963 20.7385 38.4612 18.7947 38.7 16.8309C39.1564 13.0891 38.7213 8.86043 36.4018 5.76025C35.3125 4.30177 33.8189 3.11299 31.9812 2.80032C30.1436 2.48766 28.393 3.08719 26.8854 4.03118C23.3341 6.26243 20.9587 10.1734 19.2848 13.9153C17.5563 17.7747 16.455 21.9623 15.8696 26.1395C14.7085 34.4598 15.8677 43.1668 20.2823 50.4065C22.549 54.124 25.6085 57.3886 29.3086 59.7042C33.0364 62.0345 37.2809 63.3933 41.5256 64.4405C42.5868 64.7023 43.6539 64.9382 44.7216 65.1684C45.2726 65.2884 46.1787 63.8425 45.5284 63.691C41.519 62.7464 37.4696 61.765 33.7097 60.0514C29.9497 58.3377 26.6807 55.8789 24.0372 52.731C18.8642 46.5714 16.5559 38.5277 16.6947 30.5585C16.7613 26.7529 17.3637 22.9421 18.3996 19.2764C19.4915 15.4023 21.0494 11.5946 23.5293 8.39196C25.5304 5.80349 28.7941 3.23165 32.2354 4.61889C35.6768 6.00613 37.1115 9.87539 37.4937 13.2016C37.9079 16.84 37.1865 20.7141 35.6571 24.0398C34.832 25.8327 33.6248 27.5979 31.7857 28.4581C30.3098 29.1498 28.4085 29.1888 26.942 28.4587C26.2104 28.0923 25.6012 27.5544 25.1875 26.85C24.8651 26.2997 23.7588 27.541 24.0421 28.0223L24.0493 28.0113Z" fill="black"/>
<path d="M42.0937 67.7607L49.9328 67.5398C50.4047 67.5275 50.9709 66.87 50.9051 66.3894C50.7705 65.4044 50.1748 64.6709 49.5139 63.9685C48.6985 63.0989 47.8637 62.2449 47.0315 61.3941C45.3535 59.6821 43.6625 57.9805 41.9379 56.3163C41.5671 55.9577 40.5952 57.1816 40.9955 57.5905C42.5783 59.2096 44.1914 60.7938 45.7741 62.4129C46.5407 63.1947 47.3034 63.9849 48.0564 64.7828C48.7335 65.4988 49.5821 66.2573 49.7263 67.2876L50.6986 66.1372L42.866 66.353C42.4974 66.3621 42.1949 66.693 42.0307 66.9982C41.9561 67.1369 41.7276 67.773 42.0963 67.764L42.0937 67.7607Z" fill="black"/>
</g>
<defs>
<clipPath id="clip0_774_6220">
<rect width="40.687" height="64.2426" fill="white" transform="translate(0 25.3726) rotate(-38.5798)"/>
</clipPath>
</defs>
</svg>
