<svg width="60" height="60" viewBox="0 0 60 60" fill="none" xmlns="http://www.w3.org/2000/svg">
<rect x="3.25" y="3.25" width="54.5" height="54.5" stroke="black" stroke-width="0.5"/>
<path d="M27.7778 15.5502C24.8406 16.276 22.1054 17.8621 20.0038 20.0902C18.9518 21.2039 17.7985 22.5847 17.6657 24.1818C17.5452 25.6407 18.4796 26.7714 19.6177 27.5022C20.9692 28.3701 22.6049 28.7727 24.1583 29.0909C25.9787 29.4628 27.8317 29.6516 29.6687 29.9396C30.5481 30.0775 31.4426 30.2147 32.2953 30.4715C32.9823 30.6758 33.6445 31.0273 33.9175 31.7434C34.4139 33.0372 33.391 34.4731 32.523 35.3332C31.3011 36.5476 29.8258 37.4617 28.3156 38.2468C26.8054 39.0318 25.2683 39.6599 23.6663 40.1428C20.5998 41.0695 16.7887 41.7856 13.9541 39.8957C13.3613 39.5007 12.7959 38.9237 12.6931 38.1754C12.5904 37.4271 12.918 36.7844 13.393 36.2673C14.4627 35.1005 16.0962 34.6114 17.5794 34.3096C19.2172 33.9787 20.8938 33.9272 22.554 33.9849C24.2142 34.0426 25.8468 34.214 27.4719 34.4894C34.0522 35.6065 40.2902 38.481 45.4672 42.7172C46.1132 43.2464 46.7433 43.7964 47.3589 44.3624C47.5238 44.5134 47.8284 44.5222 48.0315 44.4614C48.1809 44.4155 48.3812 44.278 48.2161 44.1194C45.7113 41.7265 42.8555 39.7116 39.8088 38.0951C36.7621 36.4786 33.4481 35.2336 30.0598 34.4558C26.6715 33.6781 23.1664 33.282 19.6984 33.509C17.9667 33.6232 16.2389 33.9486 14.62 34.6115C13.3493 35.131 11.799 36.2033 11.6833 37.7319C11.5549 39.4087 13.2989 40.4194 14.6057 40.9327C16.2518 41.5762 18.0723 41.6621 19.8178 41.4911C23.2826 41.1543 26.7524 39.9001 29.797 38.1849C31.2708 37.354 32.7425 36.3832 33.8593 35.078C34.6849 34.1146 35.4459 32.5986 34.7539 31.3652C34.3615 30.6682 33.6163 30.2954 32.8891 30.0669C32.0253 29.7968 31.1139 29.6498 30.2221 29.5033C28.3316 29.1948 26.4176 29.0113 24.5382 28.6377C22.9753 28.3269 21.2563 27.9208 19.9666 26.9238C19.4352 26.5134 18.9814 25.9963 18.7509 25.3481C18.4692 24.5587 18.6099 23.6954 18.9455 22.9385C19.6084 21.445 20.8485 20.1675 22.0693 19.13C23.2902 18.0924 24.6227 17.2793 26.0676 16.6704C26.7718 16.3734 27.4995 16.1413 28.2381 15.9579C28.393 15.9187 28.5451 15.7851 28.4121 15.6356C28.279 15.4862 27.9579 15.5005 27.7798 15.5432L27.7778 15.5502Z" fill="black"/>
<circle cx="28.3333" cy="15.9845" r="1.8013" transform="rotate(15.9775 28.3333 15.9845)" fill="white" stroke="black"/>
<circle cx="48.0963" cy="44.6888" r="1.78955" transform="rotate(15.9775 48.0963 44.6888)" fill="white" stroke="black"/>
<rect x="0.186508" y="0.186508" width="5.59524" height="5.59524" rx="0.559524" fill="white" stroke="black" stroke-width="0.373016"/>
<rect x="54.1865" y="0.186508" width="5.59524" height="5.59524" rx="0.559524" fill="white" stroke="black" stroke-width="0.373016"/>
<rect x="54.1865" y="54.1865" width="5.59524" height="5.59524" rx="0.559524" fill="white" stroke="black" stroke-width="0.373016"/>
<rect x="0.186508" y="54.1865" width="5.59524" height="5.59524" rx="0.559524" fill="white" stroke="black" stroke-width="0.373016"/>
</svg>
