<svg width="63" height="62" viewBox="0 0 63 62" fill="none" xmlns="http://www.w3.org/2000/svg">
<rect x="4.25" y="3.25" width="54.5" height="54.5" fill="#5DCA73" stroke="black" stroke-width="0.5"/>
<path d="M31.778 17.5502C28.8408 18.276 26.1057 19.8621 24.004 22.0902C22.952 23.2039 21.7988 24.5847 21.6659 26.1818C21.5454 27.6407 22.4799 28.7714 23.6179 29.5022C24.9694 30.3701 26.6052 30.7727 28.1586 31.0909C29.979 31.4628 31.832 31.6516 33.669 31.9396C34.5483 32.0775 35.4428 32.2147 36.2956 32.4715C36.9825 32.6758 37.6447 33.0273 37.9177 33.7434C38.4141 35.0372 37.3912 36.4731 36.5233 37.3332C35.3013 38.5476 33.826 39.4617 32.3158 40.2468C30.8056 41.0318 29.2686 41.6599 27.6666 42.1428C24.6001 43.0695 20.789 43.7856 17.9543 41.8957C17.3616 41.5007 16.7961 40.9237 16.6934 40.1754C16.5906 39.4271 16.9183 38.7844 17.3932 38.2673C18.4629 37.1005 20.0964 36.6114 21.5797 36.3096C23.2174 35.9787 24.894 35.9272 26.5542 35.9849C28.2144 36.0426 29.8471 36.214 31.4722 36.4894C38.0524 37.6065 44.2905 40.481 49.4675 44.7172C50.1135 45.2464 50.7436 45.7964 51.3592 46.3624C51.524 46.5134 51.8286 46.5222 52.0318 46.4614C52.1811 46.4155 52.3815 46.278 52.2164 46.1194C49.7115 43.7265 46.8557 41.7116 43.809 40.0951C40.7624 38.4786 37.4484 37.2336 34.06 36.4558C30.6717 35.6781 27.1666 35.282 23.6986 35.509C21.9669 35.6232 20.2391 35.9486 18.6203 36.6115C17.3496 37.131 15.7993 38.2033 15.6836 39.7319C15.5551 41.4087 17.2991 42.4194 18.606 42.9327C20.252 43.5762 22.0726 43.6621 23.8181 43.4911C27.2828 43.1543 30.7527 41.9001 33.7973 40.1849C35.271 39.354 36.7428 38.3832 37.8595 37.078C38.6852 36.1146 39.4461 34.5986 38.7541 33.3652C38.3618 32.6682 37.6165 32.2954 36.8894 32.0669C36.0256 31.7968 35.1142 31.6498 34.2224 31.5033C32.3318 31.1948 30.4178 31.0113 28.5385 30.6377C26.9755 30.3269 25.2566 29.9208 23.9668 28.9238C23.4354 28.5134 22.9817 27.9963 22.7512 27.3481C22.4695 26.5587 22.6102 25.6954 22.9458 24.9385C23.6086 23.445 24.8487 22.1675 26.0696 21.13C27.2905 20.0924 28.6229 19.2793 30.0678 18.6704C30.7721 18.3734 31.4998 18.1413 32.2383 17.9579C32.3932 17.9187 32.5454 17.7851 32.4123 17.6356C32.2793 17.4862 31.9582 17.5005 31.78 17.5432L31.778 17.5502Z" fill="black"/>
<circle cx="32.3333" cy="17.984" r="1.8013" transform="rotate(15.9775 32.3333 17.984)" fill="white" stroke="black"/>
<circle cx="52.0963" cy="46.6888" r="1.78955" transform="rotate(15.9775 52.0963 46.6888)" fill="white" stroke="black"/>
<rect x="0.25" y="0.25" width="7.5" height="7.5" rx="0.75" fill="white" stroke="black" stroke-width="0.5"/>
<rect x="55.25" y="0.25" width="7.5" height="7.5" rx="0.75" fill="white" stroke="black" stroke-width="0.5"/>
<rect x="55.25" y="54.25" width="7.5" height="7.5" rx="0.75" fill="white" stroke="black" stroke-width="0.5"/>
<rect x="0.25" y="54.25" width="7.5" height="7.5" rx="0.75" fill="white" stroke="black" stroke-width="0.5"/>
</svg>
